# xmcd
#
# Track frame offsets:
#	150
#	3177
#	21428
#	36700
#	60132
#	81380
#	104700
#	117480
#	142053
#	160430
#	183438
#	223475
#	240171
#	285812
#
# Disc length: 4139 seconds
# Revision: 1
# Processed by: cddbd v1.5.2PL0 Copyright (c) Steve Scherf et al.
# Submitted via: dBpowerAMP V12.0
#
DISCID=ca10290e
DTITLE=Mitch Woods - Blues Beyond Borders: Live In Istanbul
DYEAR=2012
DGENRE=Intro
TTITLE0=Introduction
TTITLE1=Solid Gold Cadillac
TTITLE2=Down Boy Down
TTITLE3=Mojo Mambo
TTITLE4=Boogie Woogie Bar B-Q
TTITLE5=I Got a New Car
TTITLE6=What Can I Do
TTITLE7=Queen Bee
TTITLE8=Crawfishin'
TTITLE9=Long, Lean and Lanky
TTITLE10=Third Degree
TTITLE11=Rocket 88
TTITLE12=In the Night/Lambaya Puf De
TTITLE13=House of Blue Lights
EXTD=
EXTT0=
EXTT1=
EXTT2=
EXTT3=
EXTT4=
EXTT5=
EXTT6=
EXTT7=
EXTT8=
EXTT9=
EXTT10=
EXTT11=
EXTT12=
EXTT13=
PLAYORDER=
